PathFileType	4	(X/Y/Z)	c:/Users/goper/Files/vsCode/490R/osim_files/C12/C12_SSWS_01.trc
DataRate	CameraRate	NumFrames	NumMarkers	Units                	OrigDataRate	OrigDataStartFrame	OrigNumFrames
120.00	120.00	5	36	mm	120.0	1054	1404
                Frame#	Time	LPSIS			LASIS			LTH1			LTH2			LTH3			LTH4			LLFE			LMFE			LSH1			LSH2			LSH3			LSH4			LLMAL			LMMAL			LCAL			LMTP5			LTOE			LMTP1			RPSIS			RASIS			RTH1			RTH2			RTH3			RTH4			RLFE			RMFE			RSH1			RSH2			RSH3			RSH4			RLMAL			RMMAL			RCAL			RMTP1			RTOE			RMTP5		
		X1	Y1	Z1	X2	Y2	Z2	X3	Y3	Z3	X4	Y4	Z4	X5	Y5	Z5	X6	Y6	Z6	X7	Y7	Z7	X8	Y8	Z8	X9	Y9	Z9	X10	Y10	Z10	X11	Y11	Z11	X12	Y12	Z12	X13	Y13	Z13	X14	Y14	Z14	X15	Y15	Z15	X16	Y16	Z16	X17	Y17	Z17	X18	Y18	Z18	X19	Y19	Z19	X20	Y20	Z20	X21	Y21	Z21	X22	Y22	Z22	X23	Y23	Z23	X24	Y24	Z24	X25	Y25	Z25	X26	Y26	Z26	X27	Y27	Z27	X28	Y28	Z28	X29	Y29	Z29	X30	Y30	Z30	X31	Y31	Z31	X32	Y32	Z32	X33	Y33	Z33	X34	Y34	Z34	X35	Y35	Z35	X36	Y36	Z36

1054	8.77500	-2973.29053	1033.31018	354.80112	-3156.06128	993.05743	400.94965	-3146.14355	713.26257	458.31149	0.00000	0.00000	0.00000	-3201.91650	738.32715	457.68082	-3215.69189	696.16687	452.44724	-3270.41040	532.15198	400.82602	-3265.71851	526.03351	277.71814	-3246.26685	420.08499	422.02942	-3265.06641	376.31412	428.44012	-3303.36719	438.53015	413.80991	-3313.72339	392.09961	418.95770	-3390.16528	109.07833	389.28067	-3399.21704	118.57705	308.28748	0.00000	0.00000	0.00000	-3533.57007	106.27374	414.17981	-3565.31763	160.64156	347.18066	-3553.60645	117.13689	309.33575	0.00000	0.00000	0.00000	-3140.23657	998.36005	141.53702	-2958.62915	743.18768	100.06348	-2953.35815	698.82062	109.08311	-3020.35205	724.96808	97.81121	-3002.10327	681.73438	104.58553	-2898.08130	527.95447	143.12291	-2911.05957	522.02502	273.71158	-2800.80127	466.22400	124.42143	-2782.92261	427.25671	117.76047	-2854.58618	431.88702	130.15173	-2827.66699	399.73343	122.20123	-2660.14478	160.43120	164.25839	-2677.59009	167.35397	246.55695	-2576.99976	152.44720	202.46204	-2762.36157	54.42410	249.89745	-2806.47217	65.52633	219.56874	-2769.63330	42.97624	144.01901
1055	8.78333	-2986.66724	1032.70874	356.50116	-3168.95142	992.58783	402.44852	-3160.82495	713.52386	458.44321	0.00000	0.00000	0.00000	-3216.68311	738.52466	457.38910	-3230.39160	696.44897	451.94785	-3283.14014	531.76398	401.09003	-3278.92773	524.09119	276.68539	-3256.71875	419.90457	421.17569	-3276.42700	376.04474	427.52676	-3315.61743	438.11237	413.67175	-3324.70361	391.80780	418.50061	-3395.60815	108.07314	388.72574	-3406.72534	116.63414	307.62442	0.00000	0.00000	0.00000	-3538.61328	98.39511	413.70377	-3573.87500	150.90909	347.04129	-3559.09229	107.94679	309.14795	0.00000	0.00000	0.00000	-3154.08643	997.18713	142.78987	-2972.25220	742.24225	101.46749	-2967.04126	697.96033	110.21719	-3034.00659	724.18329	99.04651	-3015.78589	680.77148	105.64405	-2910.35645	527.81891	144.32890	-2924.63062	520.38153	273.89838	-2812.39990	467.80624	124.88630	-2794.21289	429.03973	117.86436	-2866.01099	432.00961	130.12048	-2838.39673	400.67532	122.15807	-2665.55762	164.88104	163.21475	-2682.38501	171.75230	245.84874	-2582.29199	159.78922	201.79665	-2763.42969	54.73852	249.81900	-2807.10840	65.64861	219.61850	-2770.09033	42.89661	143.96233
1056	8.79167	-2999.92505	1032.63489	358.26062	-3182.02393	992.43237	403.99005	-3174.55835	714.54803	458.66861	0.00000	0.00000	0.00000	-3230.72119	739.20874	457.23242	-3244.27954	697.26129	451.76019	-3294.02026	531.81647	402.32660	-3289.43213	524.57843	277.01593	-3268.57300	420.79327	420.65317	-3286.86206	376.82059	427.11545	-3327.69556	438.68927	413.70193	-3336.42456	392.27902	418.55087	-3400.27612	107.13229	388.80576	-3412.63135	115.11012	307.18298	0.00000	0.00000	0.00000	-3542.96167	90.86790	413.17249	-3581.18164	141.42523	346.51730	-3563.40747	99.49472	308.56851	0.00000	0.00000	0.00000	-3168.26392	996.36078	144.18268	-2987.52148	741.35559	102.50439	-2980.69019	696.78784	112.87507	-3048.12744	723.37915	100.18452	-3029.78271	679.94269	106.79478	0.00000	0.00000	0.00000	-2938.67480	518.95306	274.19214	-2825.79736	469.25287	125.06760	-2806.10400	431.03625	117.87556	-2878.01611	432.30045	130.03119	-2849.46167	401.52908	121.92546	-2671.38037	169.71683	161.93355	-2689.86279	174.39565	243.36136	-2588.41211	167.52292	201.36798	-2764.62183	55.01816	249.81975	-2807.31274	65.19595	220.26469	-2770.48804	42.84930	143.95654
1057	8.80000	-3013.48340	1032.82043	360.23984	-3195.18579	992.46698	405.33069	-3187.60571	716.30139	459.14209	0.00000	0.00000	0.00000	-3244.04102	740.30493	457.19333	-3257.16333	698.38440	452.05493	-3305.66504	532.68799	403.88824	-3298.55298	525.03644	279.45401	-3280.62769	422.36731	421.11371	-3298.43994	378.27081	427.62830	-3339.24316	439.65753	413.74179	-3348.07593	393.13120	418.83780	-3404.71631	106.05746	389.09476	-3416.12451	113.88996	307.04929	0.00000	0.00000	0.00000	-3546.57373	84.21991	412.57986	-3586.47900	133.15652	345.75638	-3566.04028	91.37425	307.87814	0.00000	0.00000	0.00000	-3182.29956	995.86963	145.61792	-3001.13013	740.72644	103.77647	0.00000	0.00000	0.00000	-3062.53662	722.92499	101.56887	-3044.56812	679.32300	107.92836	-2939.67505	526.28882	144.55962	-2954.25952	517.31122	273.86063	-2839.52295	470.84372	125.12729	-2818.82910	433.33542	117.78749	-2890.77710	432.72971	129.77988	-2861.43774	402.75671	121.58443	-2677.76807	174.87538	160.72499	-2697.09082	178.59476	242.02840	-2595.52466	175.79875	201.27834	-2765.85303	55.12482	249.84750	-2807.42822	65.17473	220.26782	-2770.87769	42.81530	143.97443
1058	8.80833	-3026.66138	1033.76941	361.92068	-3208.43115	992.96509	406.60443	0.00000	0.00000	0.00000	0.00000	0.00000	0.00000	-3257.39111	742.01569	457.40329	-3269.51099	699.72974	452.74606	-3317.91455	534.33496	404.86075	-3307.64453	525.87250	279.88736	-3292.52759	424.51712	422.18112	-3309.49658	380.07288	428.81079	-3351.32812	440.58240	414.04327	-3359.45605	394.05353	419.29480	-3408.63550	105.30139	389.20334	-3419.06665	112.62027	307.98685	0.00000	0.00000	0.00000	-3549.53784	78.20559	412.38287	-3590.66187	125.96947	345.47397	-3569.66333	85.36098	307.47372	0.00000	0.00000	0.00000	-3196.46143	995.78839	147.29337	-3016.27954	740.58514	105.07789	-3009.95166	695.70715	115.29739	-3078.13501	722.70630	102.78410	-3059.55151	678.42334	109.41441	-2956.12476	525.35931	143.29678	-2968.61914	516.56366	273.91180	-2853.41943	473.09326	124.52781	-2832.20288	435.77466	117.58623	-2904.36621	433.55301	128.89143	-2872.81567	405.26782	121.45074	-2684.43750	180.59978	159.87981	-2705.53467	182.47057	240.46118	-2603.91675	184.47180	201.57458	-2767.50171	55.64156	250.54623	-2807.61035	65.29928	220.33270	-2771.06006	42.76592	143.96150
